# xmcd
#
# Track frame offsets:
# 150
# 11592
# 24025
# 38559
# 50969
# 64513
# 77396
# 91269
# 102672
# 116222
# 129925
# 143846
# 155969
# 169699
# 183799
# 195916
# 210147
# 224263
# 233565
# 247798
# 261717
# 273518
# 288227
# 302393
# 316062
#
# Disc length: 4393 seconds
#
#
# Revision: 0
# Processed by: cddbd v1.5.1PL2 Copyright (c) Steve Scherf et al.
# Submitted via: FreeRIP 2.945 
#
DISCID=48112719
DTITLE=Dick Haymes and Helen Forrest - Together Again
DYEAR=2005
DGENRE=Classical
TTITLE0=It's A Grand Night For Singing (Rodgers - Hammerstein)
TTITLE1=You'll Never Know (Warren - Gordon)
TTITLE2=Little White Lies (Donaldson)
TTITLE3=Love Letters (Young - Heyman)
TTITLE4=When I'm Not Near The Girl I Love (Lane - Harburg)
TTITLE5=That's For Me (Rodgers - Hammerstein)
TTITLE6=How Blue The Night (McHugh - Adamson)
TTITLE7=It's Magic (Styne - Cahn)
TTITLE8=How Are Things In Glocca Morra (Lane - Harburg)
TTITLE9=Mam'selle (Goulding - Gordon)
TTITLE10=Laura (Raksin - Mercer)
TTITLE11=I'll Get By - with Harry James (Ahlert - Turk)
TTITLE12=The More I See You (Warren - Gordon)
TTITLE13=It Might As Well Be Spring (Rodgers - Hammerstein)
TTITLE14=Put Your Arms Around Me, Honey (Von Tilzer - McCree)
TTITLE15=For You, For Me, For Evermore - with Judy Garland (Gershwin - Gershwin)
TTITLE16=1 Wish 1 Knew ((Gordon - VVarren)
TTITLE17=Where Or When (Rodgers - Hart)
TTITLE18=The Girl That I Marry (Rose - Burton)
TTITLE19=Till The End Of Time (Kaye - Mossman)
TTITLE20=Room Full Of Roses (Spencer)
TTITLE21=It Can't Be Wrong (Steiner - Gannon)
TTITLE22=How Deep Is The Ocean (Berlin)
TTITLE23=1 Only Have Eyes For You (Dubin - Warren)
TTITLE24=They Didn't Believe Me (Rourke - Kern)
EXTD=Disc 2 of 3
EXTT0=
EXTT1=
EXTT2=
EXTT3=
EXTT4=
EXTT5=
EXTT6=
EXTT7=
EXTT8=
EXTT9=
EXTT10=
EXTT11=
EXTT12=
EXTT13=
EXTT14=
EXTT15=
EXTT16=
EXTT17=
EXTT18=
EXTT19=
EXTT20=
EXTT21=
EXTT22=
EXTT23=
EXTT24=
PLAYORDER=
